<?xml version="1.0" encoding="utf-8"?>
<!-- Generator: Adobe Illustrator 22.0.0, SVG Export Plug-In . SVG Version: 6.00 Build 0)  -->
<svg version="1.1" id="Layer_1" xmlns="http://www.w3.org/2000/svg" xmlns:xlink="http://www.w3.org/1999/xlink" x="0px" y="0px"
	 viewBox="0 0 25 25" style="enable-background:new 0 0 25 25;" xml:space="preserve">
<style type="text/css">
	.st0{fill:#204364;}
</style>
<title>twitter</title>
<path class="st0" d="M21.2,0H3.8C1.7,0,0,1.7,0,3.8v17.5C0,23.3,1.7,25,3.8,25l0,0h17.5c2.1,0,3.8-1.7,3.8-3.8l0,0V3.8
	C25,1.7,23.3,0,21.2,0C21.2,0,21.2,0,21.2,0z M17,22.3h-4v-9.8h-2V9h2V7c0-2.8,1.1-4.4,4.4-4.4h2.7V6h-1.7C17.1,6,17,6.4,17,7.3V9h3
	l-0.4,3.4H17V22.3z"/>
</svg>
