<?xml version="1.0" encoding="utf-8"?>
<!-- Generator: Adobe Illustrator 22.0.0, SVG Export Plug-In . SVG Version: 6.00 Build 0)  -->
<svg version="1.1" id="Layer_1" xmlns="http://www.w3.org/2000/svg" xmlns:xlink="http://www.w3.org/1999/xlink" x="0px" y="0px"
	 viewBox="0 0 25 25" style="enable-background:new 0 0 25 25;" xml:space="preserve">
<style type="text/css">
	.st0{fill:#204364;}
</style>
<title>facebook</title>
<path class="st0" d="M21.2,0H3.8C1.7,0,0,1.7,0,3.7c0,0,0,0,0,0v17.5C0,23.3,1.7,25,3.7,25c0,0,0,0,0,0h17.5c2.1,0,3.8-1.7,3.8-3.7
	c0,0,0,0,0,0V3.8C25,1.7,23.3,0,21.2,0C21.2,0,21.2,0,21.2,0z M19.9,9v0.4c0,5.5-4.5,10-10,10c-1.9,0-3.7-0.6-5.3-1.6
	c0.3,0,0.6,0,0.8,0c1.6,0,3.1-0.5,4.4-1.5c-1.5,0-2.8-1-3.3-2.4c0.2,0,0.4,0.1,0.7,0.1c0.3,0,0.6,0,0.9-0.1
	c-1.6-0.3-2.8-1.8-2.8-3.4l0,0c0.5,0.3,1,0.4,1.6,0.4c-1.5-1-2-3.1-1.1-4.7c1.8,2.2,4.4,3.5,7.2,3.7c-0.4-1.9,0.7-3.8,2.6-4.2
	c1.2-0.3,2.5,0.1,3.4,1c0.8-0.2,1.5-0.4,2.2-0.8c-0.3,0.8-0.8,1.5-1.5,1.9c0.7-0.1,1.4-0.3,2-0.6C21.2,7.9,20.6,8.5,19.9,9z"/>
</svg>
